<svg id="svg" version="1.1" xmlns="http://www.w3.org/2000/svg" xmlns:xlink="http://www.w3.org/1999/xlink" width="400"
  height="352.4822695035461" viewBox="53.44 111.88 285.49 107.67">
  <g id="svgg">
    <path id="path0"
      d="M53.827 152.468 C 53.550 153.855,53.570 217.106,53.848 217.831 C 54.017 218.271,57.851 218.342,81.495 218.342 L 108.947 218.342 109.616 217.372 C 109.985 216.839,111.136 214.815,112.176 212.875 C 113.215 210.935,114.757 208.078,115.603 206.526 C 118.168 201.816,122.046 193.949,122.046 193.454 C 122.046 193.181,122.392 193.016,122.886 193.055 C 123.684 193.118,132.516 185.529,132.598 184.711 C 132.614 184.546,132.927 183.991,133.292 183.476 C 133.657 182.961,134.273 181.984,134.660 181.305 C 135.047 180.626,136.674 177.928,138.274 175.309 C 141.667 169.758,143.073 167.428,143.918 165.961 C 144.253 165.379,145.341 163.582,146.337 161.967 C 147.333 160.352,148.148 158.955,148.148 158.861 C 148.148 158.768,148.770 157.775,149.531 156.655 C 151.208 154.186,152.381 152.129,152.381 151.658 C 152.381 151.436,149.420 151.344,144.210 151.404 L 136.039 151.499 135.450 152.557 C 135.126 153.139,134.013 155.203,132.977 157.143 C 131.941 159.083,130.405 161.940,129.564 163.492 C 127.424 167.445,124.558 173.364,124.055 174.870 C 123.445 176.701,123.003 176.614,122.269 174.517 C 121.912 173.497,120.542 170.362,119.225 167.549 C 115.044 158.616,112.507 153.290,112.000 152.381 L 111.509 151.499 102.466 151.405 L 93.424 151.311 94.419 153.169 C 94.966 154.190,96.167 156.268,97.089 157.786 C 98.011 159.304,98.765 160.597,98.765 160.660 C 98.765 160.723,99.415 161.844,100.209 163.150 C 101.003 164.457,101.955 166.060,102.325 166.714 C 102.695 167.367,103.316 168.457,103.704 169.136 C 104.092 169.815,104.727 170.926,105.115 171.605 C 105.503 172.284,106.154 173.435,106.563 174.162 C 106.972 174.890,107.431 175.644,107.584 175.838 C 107.736 176.032,108.196 176.786,108.604 177.513 C 109.013 178.241,109.691 179.431,110.112 180.159 C 113.063 185.266,113.093 184.517,109.729 189.594 C 108.444 191.534,107.172 193.556,106.903 194.086 C 106.633 194.616,106.121 195.363,105.764 195.746 C 105.407 196.130,105.115 196.538,105.115 196.654 C 105.115 196.769,104.480 197.799,103.704 198.942 C 102.928 200.085,102.293 201.090,102.293 201.177 C 102.293 201.263,100.864 203.494,99.118 206.134 C 97.372 208.774,95.944 211.065,95.944 211.224 C 95.944 211.383,95.467 212.047,94.885 212.698 L 93.827 213.884 93.827 210.336 C 93.827 205.558,94.994 205.947,80.893 206.021 L 68.959 206.083 68.959 198.368 L 68.959 190.653 79.806 190.559 L 90.653 190.466 90.653 184.475 L 90.653 178.483 79.711 178.483 L 68.769 178.483 68.864 170.988 L 68.959 163.492 80.511 163.399 L 92.063 163.306 92.063 157.314 L 92.063 151.323 73.060 151.323 L 54.056 151.323 53.827 152.468 M210.197 152.287 C 209.542 154.002,205.991 163.699,204.414 168.078 C 203.576 170.406,202.304 173.898,201.588 175.838 C 199.087 182.610,194.765 194.545,194.371 195.767 C 194.215 196.252,193.814 197.363,193.482 198.236 C 193.149 199.109,192.559 200.697,192.171 201.764 C 191.783 202.831,191.333 204.021,191.170 204.409 C 191.008 204.797,190.527 206.146,190.102 207.407 C 189.677 208.668,189.211 209.859,189.068 210.053 C 188.925 210.247,188.721 210.802,188.615 211.287 C 188.343 212.539,186.398 217.953,186.121 218.229 C 185.426 218.924,186.604 219.048,193.947 219.048 L 202.003 219.048 202.413 218.149 C 202.638 217.655,202.822 217.018,202.822 216.733 C 202.822 216.449,202.970 215.941,203.152 215.604 C 203.439 215.070,204.752 210.974,206.061 206.526 C 206.782 204.076,205.960 204.214,219.169 204.316 L 231.190 204.409 231.608 205.291 C 231.838 205.776,232.211 206.808,232.438 207.584 C 232.665 208.360,232.981 209.312,233.140 209.700 C 233.299 210.088,233.625 211.120,233.864 211.993 C 234.103 212.866,234.383 213.818,234.487 214.109 C 234.591 214.400,235.009 215.591,235.416 216.755 L 236.155 218.871 244.180 218.966 C 248.872 219.021,252.205 218.927,252.205 218.738 C 252.205 218.560,251.475 216.375,250.584 213.881 C 249.693 211.388,248.357 207.601,247.615 205.467 C 246.873 203.333,245.556 199.603,244.689 197.178 C 241.266 187.609,237.305 176.436,236.624 174.427 C 236.229 173.263,235.772 171.993,235.607 171.605 C 235.443 171.217,235.073 170.185,234.785 169.312 C 234.497 168.439,233.765 166.376,233.157 164.727 C 232.549 163.078,231.820 161.014,231.535 160.141 C 231.251 159.268,230.865 158.278,230.677 157.941 C 230.489 157.604,230.335 157.086,230.335 156.790 C 230.335 156.494,230.190 155.976,230.012 155.639 C 229.835 155.302,229.387 154.233,229.016 153.263 L 228.343 151.499 219.456 151.405 L 210.569 151.311 210.197 152.287 M261.023 185.185 L 261.023 219.048 267.737 219.048 L 274.452 219.048 274.351 191.711 C 274.285 173.653,274.370 164.375,274.603 164.376 C 274.797 164.378,275.311 166.164,275.745 168.345 C 276.200 170.631,277.671 175.522,279.219 179.894 C 284.542 194.926,285.781 198.444,286.420 200.353 C 286.777 201.420,287.568 203.642,288.178 205.291 C 288.787 206.940,289.680 209.480,290.160 210.935 C 290.641 212.390,291.171 213.898,291.338 214.286 C 291.505 214.674,291.993 215.904,292.423 217.019 L 293.204 219.048 299.294 219.048 C 304.787 219.048,305.404 218.987,305.576 218.430 C 305.681 218.091,306.899 214.559,308.284 210.582 C 312.133 199.522,314.258 193.367,315.164 190.653 C 315.617 189.295,317.276 184.453,318.850 179.894 C 320.424 175.335,321.944 170.573,322.226 169.312 C 323.410 164.031,324.414 162.530,323.936 166.755 C 323.787 168.064,323.616 180.366,323.555 194.092 L 323.443 219.048 330.857 219.048 L 338.272 219.048 338.272 185.185 L 338.272 151.323 327.502 151.323 C 317.556 151.323,316.718 151.370,316.535 151.940 C 316.427 152.280,316.212 152.875,316.058 153.263 C 315.903 153.651,315.573 154.683,315.323 155.556 C 315.073 156.429,314.737 157.294,314.577 157.478 C 314.417 157.662,314.286 158.152,314.286 158.566 C 314.286 158.979,314.182 159.422,314.055 159.549 C 313.821 159.783,311.306 166.849,310.769 168.783 C 310.424 170.022,308.733 174.815,308.279 175.838 C 308.107 176.226,307.000 179.480,305.820 183.069 C 304.640 186.658,303.533 189.912,303.359 190.300 C 303.185 190.688,302.701 192.196,302.283 193.651 C 301.865 195.106,301.378 196.661,301.202 197.107 C 301.026 197.552,300.882 198.271,300.882 198.704 C 300.882 199.136,300.623 199.859,300.308 200.310 C 299.611 201.304,299.132 200.793,299.124 199.047 C 299.121 198.425,298.976 197.552,298.802 197.107 C 298.628 196.661,298.288 195.582,298.047 194.709 C 297.455 192.574,295.629 186.945,295.242 186.067 C 295.072 185.679,294.741 184.727,294.507 183.951 C 294.273 183.175,293.956 182.222,293.801 181.834 C 293.647 181.446,293.185 180.097,292.775 178.836 C 292.366 177.575,291.879 176.268,291.694 175.931 C 291.509 175.594,291.358 175.008,291.358 174.629 C 291.358 174.250,291.218 173.853,291.046 173.746 C 290.874 173.640,290.649 173.115,290.546 172.579 C 290.443 172.043,289.698 169.780,288.891 167.549 C 288.084 165.317,287.288 163.016,287.122 162.434 C 286.541 160.393,284.056 153.427,283.828 153.199 C 283.702 153.073,283.598 152.598,283.598 152.146 L 283.598 151.323 272.310 151.323 L 261.023 151.323 261.023 185.185 M219.887 166.420 C 220.009 167.344,220.726 170.000,221.480 172.322 C 222.233 174.644,223.353 178.210,223.968 180.247 C 224.583 182.284,225.217 184.268,225.376 184.656 C 225.535 185.044,226.018 186.552,226.449 188.007 C 226.880 189.462,227.390 190.952,227.582 191.317 C 227.834 191.797,227.800 192.065,227.458 192.282 C 226.822 192.684,210.677 192.679,210.428 192.276 C 210.253 191.993,210.917 189.353,211.634 187.478 C 211.959 186.630,214.385 179.005,215.507 175.309 C 215.949 173.854,216.439 172.346,216.597 171.958 C 216.755 171.570,217.074 170.617,217.306 169.841 C 217.537 169.065,217.865 168.066,218.035 167.620 C 218.204 167.174,218.342 166.209,218.342 165.474 C 218.342 162.806,219.502 163.516,219.887 166.420 "
      stroke="none" fill="#ffffff" fill-rule="evenodd"></path>
    <path id="path2"
      d="M211.432 115.946 C 209.675 118.428,207.152 122.046,205.826 123.986 C 204.500 125.926,202.985 128.069,202.459 128.748 C 201.933 129.427,200.533 131.411,199.348 133.157 C 195.984 138.112,192.176 143.604,190.903 145.335 C 189.400 147.380,183.357 155.980,176.014 166.524 C 174.559 168.614,172.697 171.280,171.876 172.450 C 171.054 173.620,168.524 177.242,166.252 180.499 C 163.980 183.755,160.684 188.455,158.927 190.944 C 155.508 195.785,152.290 200.383,149.277 204.730 C 147.074 207.908,147.368 207.990,144.605 203.437 C 143.398 201.450,141.956 199.163,141.399 198.355 C 140.843 197.547,140.388 196.788,140.388 196.667 C 140.388 196.546,139.436 194.951,138.272 193.122 C 137.108 191.293,136.155 189.722,136.155 189.632 C 136.155 189.542,135.520 188.512,134.744 187.344 C 132.912 184.586,132.702 185.328,137.618 177.241 C 139.974 173.365,142.599 169.004,143.452 167.549 C 144.304 166.093,146.826 161.900,149.056 158.231 C 151.290 154.553,152.975 151.423,152.810 151.258 C 152.644 151.092,148.740 151.000,144.134 151.052 L 135.758 151.146 134.504 153.439 C 133.815 154.700,132.449 157.240,131.469 159.083 C 130.489 160.926,128.957 163.783,128.064 165.432 C 125.920 169.391,124.619 172.079,124.045 173.737 C 123.419 175.546,123.012 175.593,122.488 173.914 C 121.864 171.915,120.987 170.031,113.334 154.239 L 111.756 150.983 82.598 151.065 L 53.439 151.146 53.439 184.832 L 53.439 218.519 81.525 218.609 L 109.610 218.699 111.246 215.528 C 112.145 213.783,113.222 211.758,113.639 211.028 C 114.055 210.298,115.078 208.395,115.912 206.800 C 116.746 205.205,117.934 202.990,118.554 201.877 C 119.173 200.764,120.061 199.054,120.529 198.075 C 120.996 197.097,121.528 196.021,121.712 195.684 C 121.896 195.347,122.046 194.818,122.046 194.508 C 122.046 193.845,122.775 193.997,123.110 194.730 C 123.600 195.803,125.730 199.983,127.680 203.704 C 132.607 213.100,133.478 214.743,134.461 216.490 L 135.502 218.342 143.677 218.365 C 152.806 218.391,155.165 218.530,158.113 219.218 C 161.197 219.937,159.739 222.284,176.619 189.418 C 177.964 186.799,180.660 181.640,182.610 177.954 C 189.148 165.594,198.707 146.833,201.482 140.917 C 204.926 133.574,206.876 129.401,210.298 122.046 C 212.239 117.875,214.065 113.952,214.355 113.329 C 215.586 110.686,214.416 111.733,211.432 115.946 M209.830 151.940 C 209.620 152.474,209.321 153.307,209.165 153.792 C 209.009 154.277,208.377 156.023,207.760 157.672 C 207.143 159.321,206.509 161.067,206.349 161.552 C 206.190 162.037,205.559 163.783,204.947 165.432 C 204.334 167.081,203.601 169.145,203.317 170.018 C 203.032 170.891,202.646 171.881,202.458 172.217 C 202.270 172.554,202.126 173.110,202.138 173.452 C 202.163 174.150,202.977 172.072,206.865 161.376 C 208.346 157.302,209.770 153.413,210.030 152.734 L 210.504 151.499 219.423 151.499 L 228.343 151.499 229.016 153.263 C 229.387 154.233,229.835 155.302,230.012 155.639 C 230.190 155.976,230.335 156.494,230.335 156.790 C 230.335 157.086,230.489 157.604,230.677 157.941 C 230.865 158.278,231.251 159.268,231.535 160.141 C 231.820 161.014,232.549 163.078,233.157 164.727 C 233.765 166.376,234.497 168.439,234.785 169.312 C 235.073 170.185,235.443 171.217,235.607 171.605 C 235.772 171.993,236.229 173.263,236.624 174.427 C 237.305 176.436,241.266 187.609,244.689 197.178 C 245.556 199.603,246.873 203.333,247.615 205.467 C 248.357 207.601,249.693 211.388,250.584 213.881 C 251.475 216.375,252.205 218.560,252.205 218.738 C 252.205 218.927,248.872 219.021,244.180 218.966 L 236.155 218.871 235.416 216.755 C 235.009 215.591,234.591 214.400,234.487 214.109 C 234.383 213.818,234.103 212.866,233.864 211.993 C 233.625 211.120,233.299 210.088,233.140 209.700 C 232.981 209.312,232.665 208.360,232.438 207.584 C 232.211 206.808,231.838 205.776,231.608 205.291 L 231.190 204.409 219.169 204.316 C 205.960 204.214,206.782 204.076,206.061 206.526 C 205.833 207.302,205.150 209.492,204.545 211.393 C 203.939 213.293,203.527 214.932,203.630 215.035 C 203.732 215.137,203.923 214.852,204.055 214.400 C 204.186 213.949,204.936 211.556,205.720 209.083 L 207.147 204.586 219.037 204.586 L 230.927 204.586 231.337 205.484 C 231.562 205.978,231.746 206.683,231.746 207.050 C 231.746 207.418,231.905 207.817,232.099 207.937 C 232.293 208.056,232.451 208.465,232.451 208.844 C 232.451 209.223,232.594 209.809,232.769 210.146 C 232.944 210.483,233.698 212.663,234.444 214.991 L 235.802 219.224 243.908 219.319 C 253.975 219.437,253.155 219.896,251.451 215.099 C 250.671 212.905,249.795 210.397,249.504 209.524 C 249.212 208.651,248.839 207.619,248.674 207.231 C 248.196 206.104,246.510 201.302,246.321 200.529 C 246.227 200.141,246.020 199.506,245.862 199.118 C 245.703 198.730,245.383 197.857,245.150 197.178 C 244.917 196.499,244.598 195.626,244.442 195.238 C 243.776 193.588,242.915 191.227,242.317 189.418 C 241.375 186.569,239.855 182.292,239.496 181.481 C 239.324 181.093,238.787 179.586,238.302 178.131 C 236.863 173.807,234.900 168.129,234.582 167.372 C 234.420 166.984,234.096 166.111,233.862 165.432 C 233.629 164.753,233.306 163.880,233.145 163.492 C 232.713 162.453,230.862 157.159,229.939 154.321 C 228.753 150.676,229.683 150.970,219.348 150.970 L 210.212 150.970 209.830 151.940 M260.835 151.406 C 260.741 151.651,260.706 167.011,260.756 185.538 L 260.847 219.224 267.901 219.224 L 274.956 219.224 275.011 197.354 C 275.042 185.326,274.947 173.898,274.801 171.958 C 274.646 169.906,274.513 179.018,274.481 193.739 L 274.427 219.048 267.725 219.048 L 261.023 219.048 261.023 185.185 L 261.023 151.323 272.310 151.323 L 283.598 151.323 283.598 152.146 C 283.598 152.598,283.702 153.073,283.828 153.199 C 284.056 153.427,286.541 160.393,287.122 162.434 C 287.288 163.016,288.084 165.317,288.891 167.549 C 289.698 169.780,290.443 172.043,290.546 172.579 C 290.649 173.115,290.874 173.640,291.046 173.746 C 291.218 173.853,291.358 174.250,291.358 174.629 C 291.358 175.008,291.509 175.594,291.694 175.931 C 291.879 176.268,292.366 177.575,292.775 178.836 C 293.185 180.097,293.647 181.446,293.801 181.834 C 293.956 182.222,294.273 183.175,294.507 183.951 C 294.741 184.727,295.072 185.679,295.242 186.067 C 295.629 186.945,297.455 192.574,298.047 194.709 C 298.288 195.582,298.628 196.661,298.802 197.107 C 298.976 197.552,299.121 198.425,299.124 199.047 C 299.132 200.793,299.611 201.304,300.308 200.310 C 300.623 199.859,300.882 199.136,300.882 198.704 C 300.882 198.271,301.026 197.552,301.202 197.107 C 301.378 196.661,301.865 195.106,302.283 193.651 C 302.701 192.196,303.185 190.688,303.359 190.300 C 303.533 189.912,304.640 186.658,305.820 183.069 C 307.000 179.480,308.107 176.226,308.279 175.838 C 308.733 174.815,310.424 170.022,310.769 168.783 C 311.306 166.849,313.821 159.783,314.055 159.549 C 314.182 159.422,314.286 158.979,314.286 158.566 C 314.286 158.152,314.417 157.662,314.577 157.478 C 314.737 157.294,315.073 156.429,315.323 155.556 C 315.573 154.683,315.903 153.651,316.058 153.263 C 316.212 152.875,316.427 152.280,316.535 151.940 C 316.718 151.370,317.556 151.323,327.502 151.323 L 338.272 151.323 338.272 185.185 L 338.272 219.048 330.867 219.048 L 323.462 219.048 323.367 195.944 L 323.273 172.839 323.277 196.032 L 323.280 219.224 331.041 219.224 L 338.801 219.224 338.900 185.389 C 338.979 158.194,338.910 151.498,338.547 151.267 C 337.984 150.910,317.072 150.884,316.553 151.240 C 316.345 151.383,315.129 154.594,313.851 158.377 C 312.573 162.160,310.570 168.034,309.400 171.429 C 302.942 190.164,301.302 195.093,300.868 197.079 C 300.412 199.167,299.471 200.425,299.471 198.948 C 299.471 198.575,299.219 197.350,298.911 196.225 C 298.603 195.100,298.227 193.704,298.075 193.122 C 297.923 192.540,297.294 190.635,296.677 188.889 C 296.059 187.143,295.307 184.921,295.005 183.951 C 294.703 182.981,294.324 181.869,294.163 181.481 C 294.002 181.093,293.299 179.109,292.602 177.072 C 291.905 175.035,290.622 171.305,289.751 168.783 C 288.880 166.261,287.173 161.261,285.957 157.672 L 283.746 151.146 272.375 151.053 C 263.468 150.980,260.968 151.057,260.835 151.406 M92.063 157.314 L 92.063 163.306 80.516 163.399 C 69.268 163.490,68.967 163.510,68.882 164.198 C 68.835 164.586,68.885 164.705,68.995 164.462 C 69.149 164.123,71.821 164.021,80.617 164.021 C 94.242 164.021,92.848 164.796,92.686 157.313 C 92.564 151.738,92.796 150.969,93.936 153.175 C 94.262 153.805,94.811 154.797,95.156 155.379 C 95.501 155.961,96.396 157.469,97.146 158.730 C 98.727 161.390,98.876 161.645,102.371 167.725 C 103.821 170.247,106.619 175.063,108.588 178.427 C 110.558 181.791,112.169 184.622,112.169 184.719 C 112.169 184.947,107.393 192.535,101.577 201.546 C 100.310 203.509,98.252 206.734,97.002 208.714 C 94.479 212.713,94.288 212.724,94.214 208.882 C 94.147 205.406,95.148 205.655,81.246 205.649 C 71.951 205.645,69.149 205.543,68.995 205.203 C 68.885 204.960,68.832 205.060,68.877 205.423 C 68.956 206.057,69.464 206.082,80.893 206.022 C 94.994 205.947,93.827 205.558,93.827 210.336 L 93.827 213.884 94.885 212.698 C 95.467 212.047,95.944 211.383,95.944 211.224 C 95.944 211.065,97.372 208.774,99.118 206.134 C 100.864 203.494,102.293 201.263,102.293 201.177 C 102.293 201.090,102.928 200.085,103.704 198.942 C 104.480 197.799,105.115 196.769,105.115 196.654 C 105.115 196.538,105.407 196.130,105.764 195.746 C 106.121 195.363,106.633 194.616,106.903 194.086 C 107.172 193.556,108.444 191.534,109.729 189.594 C 113.093 184.517,113.063 185.266,110.112 180.159 C 109.691 179.431,109.013 178.241,108.604 177.513 C 108.196 176.786,107.736 176.032,107.584 175.838 C 107.431 175.644,106.972 174.890,106.563 174.162 C 106.154 173.435,105.503 172.284,105.115 171.605 C 104.727 170.926,104.092 169.815,103.704 169.136 C 103.316 168.457,102.695 167.367,102.325 166.714 C 101.955 166.060,101.003 164.457,100.209 163.150 C 99.415 161.844,98.765 160.723,98.765 160.660 C 98.765 160.597,98.011 159.304,97.089 157.786 C 96.167 156.268,94.966 154.190,94.419 153.169 L 93.424 151.311 102.466 151.405 L 111.509 151.499 112.000 152.381 C 112.507 153.290,115.044 158.616,119.225 167.549 C 120.542 170.362,121.912 173.497,122.269 174.517 C 123.003 176.614,123.445 176.701,124.055 174.870 C 124.558 173.364,127.424 167.445,129.564 163.492 C 130.405 161.940,131.941 159.083,132.977 157.143 C 134.013 155.203,135.126 153.139,135.450 152.557 L 136.039 151.499 144.210 151.404 C 149.420 151.344,152.381 151.436,152.381 151.658 C 152.381 152.129,151.208 154.186,149.531 156.655 C 148.770 157.775,148.148 158.768,148.148 158.861 C 148.148 158.955,147.333 160.352,146.337 161.967 C 145.341 163.582,144.253 165.379,143.918 165.961 C 143.073 167.428,141.667 169.758,138.274 175.309 C 136.674 177.928,135.047 180.626,134.660 181.305 C 134.273 181.984,133.657 182.961,133.292 183.476 C 132.927 183.991,132.614 184.546,132.598 184.711 C 132.516 185.529,123.684 193.118,122.886 193.055 C 122.392 193.016,122.046 193.181,122.046 193.454 C 122.046 193.949,118.168 201.816,115.603 206.526 C 114.757 208.078,113.215 210.935,112.176 212.875 C 111.136 214.815,109.985 216.839,109.616 217.372 L 108.947 218.342 81.495 218.342 C 57.851 218.342,54.017 218.271,53.848 217.831 C 53.570 217.106,53.550 153.855,53.827 152.468 L 54.056 151.323 73.060 151.323 L 92.063 151.323 92.063 157.314 M218.597 163.884 C 218.457 164.024,218.342 164.740,218.342 165.474 C 218.342 166.209,218.204 167.174,218.035 167.620 C 217.865 168.066,217.537 169.065,217.306 169.841 C 217.074 170.617,216.755 171.570,216.597 171.958 C 216.439 172.346,215.949 173.854,215.507 175.309 C 214.385 179.005,211.959 186.630,211.634 187.478 C 210.917 189.353,210.253 191.993,210.428 192.276 C 210.677 192.679,226.822 192.684,227.458 192.282 C 227.800 192.065,227.834 191.797,227.582 191.317 C 227.390 190.952,226.880 189.462,226.449 188.007 C 226.018 186.552,225.535 185.044,225.376 184.656 C 225.217 184.268,224.583 182.284,223.968 180.247 C 223.353 178.210,222.233 174.644,221.480 172.322 C 220.726 170.000,220.009 167.344,219.887 166.420 C 219.654 164.666,219.034 163.447,218.597 163.884 M274.078 164.815 C 274.092 166.387,274.559 168.005,274.813 167.357 C 275.062 166.718,275.085 166.727,275.107 167.467 C 275.135 168.350,276.308 172.923,277.074 175.132 C 277.343 175.908,278.217 178.369,279.016 180.600 C 279.816 182.831,281.034 186.323,281.725 188.360 C 282.415 190.397,283.119 192.214,283.289 192.399 C 283.459 192.583,283.598 193.022,283.598 193.373 C 283.598 193.725,283.753 194.289,283.943 194.626 C 284.133 194.962,284.944 197.222,285.746 199.647 C 286.548 202.072,287.345 204.207,287.518 204.392 C 287.690 204.576,287.831 205.060,287.831 205.467 C 287.831 205.875,287.961 206.359,288.120 206.543 C 288.279 206.728,288.784 208.069,289.242 209.524 C 289.699 210.979,290.204 212.320,290.363 212.504 C 290.522 212.689,290.653 213.178,290.653 213.592 C 290.653 214.006,290.760 214.452,290.891 214.583 C 291.022 214.714,291.473 215.812,291.892 217.023 L 292.655 219.224 299.178 219.320 L 305.702 219.415 306.177 217.909 C 306.439 217.080,306.754 216.243,306.878 216.049 C 307.002 215.855,307.309 214.982,307.560 214.109 C 307.812 213.236,308.158 212.165,308.329 211.728 C 308.501 211.292,308.783 210.578,308.956 210.141 C 309.129 209.705,309.513 208.554,309.809 207.584 C 310.413 205.606,311.420 202.656,311.855 201.587 C 312.013 201.199,312.698 199.215,313.376 197.178 C 314.055 195.141,315.415 191.173,316.399 188.360 C 320.194 177.508,322.091 171.741,321.977 171.400 C 321.912 171.205,320.957 173.711,319.854 176.969 C 318.752 180.227,316.398 187.099,314.623 192.240 C 312.849 197.381,311.266 201.984,311.105 202.469 C 310.945 202.954,309.678 206.605,308.290 210.582 C 306.902 214.559,305.681 218.091,305.576 218.430 C 305.404 218.987,304.787 219.048,299.294 219.048 L 293.204 219.048 292.423 217.019 C 291.993 215.904,291.505 214.674,291.338 214.286 C 291.171 213.898,290.641 212.390,290.160 210.935 C 289.680 209.480,288.787 206.940,288.178 205.291 C 287.568 203.642,286.777 201.420,286.420 200.353 C 285.781 198.444,284.542 194.926,279.219 179.894 C 277.671 175.522,276.200 170.631,275.745 168.345 C 275.078 164.994,274.061 162.839,274.078 164.815 M323.208 165.520 C 322.564 167.414,321.953 170.395,322.165 170.607 C 322.275 170.717,322.465 170.351,322.587 169.795 C 323.007 167.893,323.201 167.669,323.470 168.783 C 323.747 169.927,323.761 169.870,324.023 166.578 C 324.214 164.188,323.831 163.691,323.208 165.520 M219.579 167.288 C 219.851 168.628,220.016 169.179,221.814 174.780 C 222.562 177.108,223.534 180.203,223.974 181.658 C 224.415 183.113,224.898 184.621,225.049 185.009 C 225.794 186.935,227.231 191.934,227.082 192.083 C 226.989 192.177,223.253 192.210,218.781 192.158 L 210.650 192.063 212.052 187.654 C 212.823 185.229,214.340 180.467,215.423 177.072 C 216.506 173.677,217.720 169.761,218.121 168.370 C 218.897 165.680,219.205 165.451,219.579 167.288 M200.064 178.918 C 197.511 185.689,196.428 188.785,196.566 188.923 C 196.716 189.074,198.137 185.537,199.060 182.716 C 199.346 181.843,200.011 180.050,200.539 178.733 C 201.066 177.415,201.423 176.261,201.331 176.169 C 201.239 176.077,200.669 177.314,200.064 178.918 M68.783 178.219 C 68.783 178.364,73.704 178.483,79.718 178.483 L 90.653 178.483 90.653 184.480 L 90.653 190.476 79.915 190.476 C 74.009 190.476,69.104 190.595,69.014 190.741 C 68.845 191.014,89.772 190.923,90.573 190.647 C 90.918 190.528,91.000 189.087,90.925 184.399 L 90.829 178.307 79.806 178.131 C 73.743 178.034,68.783 178.073,68.783 178.219 M194.984 192.859 C 191.503 202.375,190.826 204.348,190.989 204.510 C 191.086 204.607,191.264 204.386,191.384 204.019 C 191.505 203.651,191.845 202.716,192.139 201.940 C 192.434 201.164,192.801 200.132,192.955 199.647 C 193.109 199.162,193.736 197.416,194.348 195.767 C 196.082 191.097,196.535 189.715,196.383 189.563 C 196.305 189.486,195.676 190.969,194.984 192.859 M189.630 207.443 C 189.114 208.834,188.771 210.053,188.869 210.150 C 189.049 210.331,189.422 209.478,190.355 206.757 C 191.240 204.171,190.627 204.751,189.630 207.443 M187.036 214.607 C 186.212 216.823,185.538 218.808,185.538 219.018 C 185.538 219.282,188.146 219.400,193.956 219.400 L 202.373 219.400 202.950 217.889 C 203.608 216.168,203.688 215.379,203.175 215.697 C 202.981 215.817,202.822 216.215,202.822 216.583 C 202.822 216.950,202.638 217.655,202.413 218.149 L 202.003 219.048 193.947 219.048 C 186.321 219.048,185.498 218.952,186.171 218.148 C 186.326 217.964,186.655 217.178,186.902 216.402 C 187.150 215.626,187.674 214.165,188.067 213.155 C 188.460 212.145,188.726 211.152,188.658 210.948 C 188.590 210.744,187.860 212.391,187.036 214.607 "
      stroke="none" fill="#ff3366" fill-rule="evenodd"></path>
  </g>
</svg>

